<svg viewBox="0 0 50 36" fill="black" xmlns="http://www.w3.org/2000/svg">
    <path d="M37.8497 22.0485C37.8497 22.0485 34.5865 24.6051 33.9813 25.2436C33.5917 25.6547 32.5982 26.3582 31.762 26.5598C30.6309 26.8326 28.2212 26.7181 27.1946 26.88C26.6282 26.9693 25.9128 26.915 25.6024 27.5313C25.3794 27.9741 25.6888 28.6919 26.0241 28.9176C26.3553 29.1246 27.3717 29.3067 27.7441 29.2554C29.5701 29.0042 31.9888 28.7676 32.3507 28.7633C32.5858 28.7605 32.9874 28.8076 33.0184 28.9912C33.0333 29.0794 32.808 29.3197 32.7389 29.3699C32.1978 29.7626 31.7711 30.6981 27.7646 30.7032C26.6963 30.7032 19.6637 26.8319 16.9989 25.5692C15.3253 24.8445 14.1539 27.8286 15.7756 28.5618L27.7646 34.6963C28.8277 35.1861 31.2095 35.0606 32.2295 34.4838L39.497 30.3237C39.8695 30.1117 40.2798 29.9702 40.701 29.8991L42 29.9655L40.4861 21L39.1477 21.5118C38.6796 21.5908 38.2364 21.773 37.8497 22.0485Z"/>
    <path d="M41.3802 19.5419L44.3509 19.0233C44.5547 18.9877 44.8339 18.9678 44.9351 19.1571C50.4849 29.5377 48.7279 28.7478 48.7624 28.9585L43.088 29.9958C42.8848 30.0351 42.5495 29.7879 42.5178 29.5767L41.0081 20.3351C40.9844 19.925 40.9878 19.6103 41.3802 19.5419Z"/>
    <path d="M9.84172 2.08663L7.35773 1.08826C7.16979 1.01273 6.90653 0.935476 6.77184 1.08664C-0.613222 9.37475 1.22615 9.02641 1.15112 9.21119L6.11909 11.2544C6.30574 11.3332 6.51383 11.3355 6.70132 11.2556C6.89032 11.1791 7.03357 11.0303 7.10614 10.8445L10.295 2.99117C10.3995 2.62231 10.2036 2.23206 9.84172 2.08663ZM16.7064 15.5232C16.7064 15.5232 20.2867 17.172 21.4668 17.47C21.8656 17.5707 22.3475 17.4748 22.744 17.2813C23.0962 17.1093 23.381 16.8603 23.4801 16.6034C23.8735 15.5836 22.818 14.9173 22.5724 14.8737C22.2491 14.8164 17.8148 13.546 17.0996 12.6741C17.09 12.6623 15.6056 10.3885 16.2569 8.76028C16.7726 7.47088 20.4744 7.40459 21.4973 7.57228C22.1638 7.68155 23.2119 10.816 24 12.0511C25.1191 11.5011 25.7612 11.3012 27 11.5C26.6535 9.79864 25.4437 8.60642 25.165 7.39528C24.6738 5.28922 22.1934 3.80916 20.0056 3.72031L14.5517 4.03305C13.8596 4.01331 11.5352 3.51141 10.8862 3.25721L7.7593 10.958C7.74178 11.039 7.71073 11.1155 7.6661 11.1875C10.0802 14.998 14.429 15.1475 15.8385 15.3079C16.1376 15.3419 16.4277 15.415 16.7064 15.5232Z"/>
    <path fill-rule="evenodd" clip-rule="evenodd" d="M29.6586 17.3505C29.2222 15.3268 27.2736 14.0862 25.3107 14.5824C24.8664 14.6947 24.4262 14.4144 24.3274 13.9563C24.2286 13.4983 24.5087 13.036 24.9529 12.9237C27.8043 12.2029 30.6334 14.004 31.2675 16.9438C31.9015 19.8836 30.1018 22.8548 27.2504 23.5755C24.399 24.2963 21.5699 22.4951 20.9358 19.5554C20.837 19.0973 21.1171 18.635 21.5614 18.5227C22.0056 18.4104 22.4459 18.6907 22.5447 19.1487C22.9812 21.1724 24.9298 22.413 26.8926 21.9168C28.8555 21.4207 30.0951 19.3742 29.6586 17.3505Z"/>
</svg>
